<svg xmlns="http://www.w3.org/2000/svg" enable-background="new 0 0 66 66" viewBox="0 0 66 66"><path d="M64,1H30.1816c-0.5522,0-1,0.4478-1,1v4.6367H7.6362c-0.5522,0-1,0.4478-1,1s0.4478,1,1,1h22.5454c0.5522,0,1-0.4478,1-1V3
		h9.2725v3.6367h-4.7754c-0.5522,0-1,0.4478-1,1s0.4478,1,1,1h5.7754c0.5522,0,1-0.4478,1-1V3H63v9.2729h-4.6367
		c-0.5522,0-1,0.4478-1,1s0.4478,1,1,1H63v31.8184h-9.2729v-4.6367c0-0.5522-0.4478-1-1-1H18.9087c-0.5522,0-1,0.4478-1,1
		s0.4478,1,1,1h21.5454v10.2729c0,0.5522,0.4478,1,1,1h4.6367V64c0,0.5522,0.4478,1,1,1H64c0.5522,0,1-0.4478,1-1V2
		C65,1.4478,64.5522,1,64,1z M48.0908,63v-9.2725h9.2725v4.6362c0,0.5522,0.4478,1,1,1s1-0.4478,1-1v-5.6362c0-0.5522-0.4478-1-1-1
		H42.4541v-9.2729h9.2729v4.6367c0,0.5522,0.4478,1,1,1H63V63H48.0908z"/><path d="M48.0908,8.6367h10.2725c0.5522,0,1-0.4478,1-1s-0.4478-1-1-1H47.0908c-0.5522,0-1,0.4478-1,1v4.6362H30.1816
		c-0.5522,0-1,0.4478-1,1v16.9092c0,0.5522,0.4478,1,1,1h10.2725v4.6362c0,0.5522,0.4478,1,1,1s1-0.4478,1-1v-5.6362v-4.6367h3.6367
		v10.2729c0,0.5522,0.4478,1,1,1s1-0.4478,1-1v-4.6362h9.2725v10.2725c0,0.5522,0.4478,1,1,1s1-0.4478,1-1V24.5454
		c0-0.5522-0.4478-1-1-1s-1,0.4478-1,1v4.6367h-9.2725v-9.2729h4.6362c0.5522,0,1-0.4478,1-1s-0.4478-1-1-1h-4.6362V13.273V8.6367z
		 M42.4541,23.5454v-4.6362c0-0.5522-0.4478-1-1-1s-1,0.4478-1,1v10.2729h-9.2725V14.273h3.6362v10.2725c0,0.5522,0.4478,1,1,1
		s1-0.4478,1-1V14.273h9.2729v9.2725H42.4541z"/><path d="M41.4541,57.3638h-4.6362v-4.6362c0-0.5522-0.4478-1-1-1s-1,0.4478-1,1v5.6362c0,0.5522,0.4478,1,1,1h4.6362V63h-9.2725
		V48.0913h4.6362c0.5522,0,1-0.4478,1-1s-0.4478-1-1-1H14.2725V35.8184c0-0.5522-0.4478-1-1-1s-1,0.4478-1,1v11.2729
		c0,0.5522,0.4478,1,1,1h15.9092V63H8.6362v-3.6362h15.9092c0.5522,0,1-0.4478,1-1v-5.6362c0-0.5522-0.4478-1-1-1H8.6362V31.1821
		h14.9092v4.6362c0,0.5522,0.4478,1,1,1h11.2725c0.5522,0,1-0.4478,1-1s-0.4478-1-1-1H25.5454V13.273c0-0.5522-0.4478-1-1-1H7.6362
		c-0.5522,0-1,0.4478-1,1v5.6362c0,0.5522,0.4478,1,1,1h11.2725c0.5522,0,1-0.4478,1-1s-0.4478-1-1-1H8.6362V14.273h14.9092v9.2725
		H3V3h21.5454c0.5522,0,1-0.4478,1-1s-0.4478-1-1-1H2C1.4478,1,1,1.4478,1,2v62c0,0.5522,0.4478,1,1,1h39.4541
		c0.5522,0,1-0.4478,1-1v-5.6362C42.4541,57.8115,42.0063,57.3638,41.4541,57.3638z M23.5454,25.5454v3.6367H7.6362
		c-0.5522,0-1,0.4478-1,1v4.6362H3v-9.2729H23.5454z M3,36.8184h3.6362v15.9092c0,0.5522,0.4478,1,1,1h15.9092v3.6362H7.6362
		c-0.5522,0-1,0.4478-1,1V63H3V36.8184z"/></svg>