<?xml version="1.0" standalone="no"?>
<!DOCTYPE svg PUBLIC "-//W3C//DTD SVG 20010904//EN"
 "http://www.w3.org/TR/2001/REC-SVG-20010904/DTD/svg10.dtd">
<svg version="1.0" xmlns="http://www.w3.org/2000/svg"
 width="1024.000000pt" height="1024.000000pt" viewBox="0 0 1024.000000 1024.000000"
 preserveAspectRatio="xMidYMid meet">

<g transform="translate(0.000000,1024.000000) scale(0.100000,-0.100000)"
fill="#000000" stroke="none">
<path d="M4945 7593 c-765 -52 -1495 -475 -1920 -1113 -213 -320 -349 -686
-400 -1073 -18 -141 -20 -428 -3 -579 l11 -108 51 0 c94 0 187 -62 223 -147 7
-18 13 -60 13 -94 0 -81 -34 -144 -106 -199 l-53 -40 32 -77 c86 -215 206
-414 385 -641 11 -14 23 -12 120 28 594 242 1378 633 1977 985 77 45 250 146
385 225 460 268 1007 618 1410 900 159 112 393 281 413 300 11 9 -59 175 -126
300 -67 126 -123 214 -215 336 l-75 101 -74 -26 c-67 -22 -80 -24 -129 -13
-157 33 -240 197 -170 335 l23 47 -66 49 c-495 366 -1102 545 -1706 504z
m-183 -639 c151 -51 221 -235 142 -374 -89 -156 -297 -185 -423 -59 -53 53
-75 105 -75 184 -1 60 3 78 29 124 66 119 197 170 327 125z m1354 -1229 c76
-44 115 -137 94 -224 -43 -178 -274 -219 -377 -67 -28 41 -33 57 -33 108 0 69
17 112 64 157 68 66 167 76 252 26z m-1864 -359 c78 -37 139 -94 179 -168 33
-60 34 -67 34 -168 0 -95 -3 -111 -28 -162 -54 -110 -158 -187 -283 -209 -162
-28 -329 63 -402 219 -23 50 -27 69 -27 152 1 83 4 102 28 152 48 98 129 167
242 205 64 21 189 11 257 -21z"/>
<path d="M8385 7490 c-226 -34 -552 -123 -890 -242 -257 -90 -647 -247 -672
-270 -74 -68 -35 -192 64 -205 33 -4 70 7 216 66 703 284 1234 431 1553 431
194 0 234 -64 142 -230 -82 -148 -355 -438 -658 -700 -1411 -1220 -4067 -2719
-5757 -3251 -342 -107 -595 -161 -768 -162 -94 -1 -116 2 -151 21 -67 34 -72
84 -19 188 131 260 553 671 1168 1138 199 151 217 178 183 261 -17 41 -60 65
-116 65 -36 0 -56 -12 -188 -112 -529 -401 -923 -762 -1127 -1034 -208 -276
-251 -507 -118 -639 76 -77 190 -108 388 -107 196 0 419 38 703 118 1503 423
4112 1842 5652 3073 636 509 1003 925 1076 1221 74 298 -195 444 -681 370z"/>
<path d="M7555 5423 c-430 -317 -1108 -754 -1743 -1125 -459 -267 -1569 -835
-2109 -1078 -168 -76 -169 -61 12 -182 132 -88 386 -217 536 -272 140 -51 344
-103 504 -128 189 -29 541 -31 720 -4 1105 167 1951 984 2135 2062 32 187 43
383 30 564 -6 86 -14 168 -18 182 l-7 25 -60 -44z"/>
</g>
</svg>
