<svg xmlns="http://www.w3.org/2000/svg" xmlns:xlink="http://www.w3.org/1999/xlink" version="1.1" x="0px" y="0px" viewBox="0 0 100 125" style="enable-background:new 0 0 100 100;" xml:space="preserve"><path d="M29.8,30.8c0.2,0.3,0.4,0.5,0.6,0.8l14.9-9.9c-0.2-0.3-0.4-0.5-0.6-0.8L29.8,30.8z"/><path d="M39.8,62.7c0.3-0.2,0.6-0.3,0.9-0.4l-12-24c-0.3,0.2-0.6,0.3-0.9,0.4L39.8,62.7z"/><path d="M76.7,38.2c-0.3,0.2-0.6,0.3-0.9,0.4l12,24c0.3-0.2,0.6-0.3,0.9-0.4L76.7,38.2z"/><path d="M11.3,62.2c0.3,0.1,0.6,0.2,0.9,0.4l12-24c-0.3-0.1-0.6-0.3-0.9-0.4L11.3,62.2z"/><path d="M59.3,62.2c0.3,0.1,0.6,0.2,0.9,0.4l12-24c-0.3-0.1-0.6-0.3-0.9-0.4L59.3,62.2z"/><path d="M55.3,20.9c-0.2,0.3-0.3,0.6-0.6,0.8l14.9,9.9c0.2-0.3,0.3-0.6,0.6-0.8L55.3,20.9z"/><circle cx="50" cy="18" r="4"/><path d="M63.8,78.7c0.3-0.2,0.6-0.3,0.9-0.4l-4.5-8.9c-0.3,0.2-0.6,0.3-0.9,0.4L63.8,78.7z"/><path d="M51.3,78.2L50.4,80c-0.1,0-0.3,0-0.4,0c-1.1,0-2,0.9-2,2s0.9,2,2,2s2-0.9,2-2c0-0.6-0.3-1.1-0.7-1.5l0.9-1.8l4.5-8.9  c-0.3-0.1-0.6-0.2-0.9-0.4L51.3,78.2z"/><circle cx="58" cy="66" r="2"/><circle cx="66" cy="82" r="2"/><circle cx="74" cy="34" r="3"/><circle cx="42" cy="66" r="2"/><circle cx="26" cy="34" r="3"/><circle cx="10" cy="66" r="2"/><circle cx="90" cy="66" r="2"/><text x="0" y="115" fill="#000000" font-size="5px" font-weight="bold" font-family="'Helvetica Neue', Helvetica, Arial-Unicode, Arial, Sans-serif">Created by Bruno Castro</text><text x="0" y="120" fill="#000000" font-size="5px" font-weight="bold" font-family="'Helvetica Neue', Helvetica, Arial-Unicode, Arial, Sans-serif">from the Noun Project</text></svg>