<?xml version="1.0" encoding="utf-8"?>
<!-- Generator: Adobe Illustrator 21.0.2, SVG Export Plug-In . SVG Version: 6.00 Build 0)  -->
<svg version="1.1" id="Layer_1" xmlns="http://www.w3.org/2000/svg" xmlns:xlink="http://www.w3.org/1999/xlink" x="0px" y="0px"
	 viewBox="0 0 100 100" style="enable-background:new 0 0 100 100;" xml:space="preserve">
<path d="M40.5,59.5c0,1.1-0.9,2-2,2c-12.7,0-23-10.3-23-23c0-1.1,0.9-2,2-2s2,0.9,2,2c0,10.5,8.5,19,19,19
	C39.6,57.5,40.5,58.4,40.5,59.5z M94.5,86.5c0,2.1-0.8,4.1-2.3,5.5L92,92.2c-1.5,1.5-3.4,2.3-5.5,2.3c-2.1,0-4.1-0.8-5.5-2.3
	L65.1,76.3c-1.5-1.5-2.3-3.4-2.3-5.5c0-1.5,0.4-2.9,1.1-4.1l-3.5-3.5c-5.8,5.2-13.5,8.3-21.9,8.3c-18.2,0-33-14.8-33-33
	c0-18.2,14.8-33,33-33c18.2,0,33,14.8,33,33c0,8.4-3.1,16-8.3,21.9l3.5,3.5c1.2-0.7,2.6-1.1,4.1-1.1c2.1,0,4.1,0.8,5.5,2.3
	l15.9,15.9C93.7,82.4,94.5,84.4,94.5,86.5z M65.5,38.5c0-14.9-12.1-27-27-27c-14.9,0-27,12.1-27,27c0,14.9,12.1,27,27,27
	C53.4,65.5,65.5,53.4,65.5,38.5z M88.5,86.5c0-0.5-0.2-0.9-0.5-1.3L72.1,69.3c-0.3-0.3-0.8-0.5-1.3-0.5c-0.5,0-0.9,0.2-1.3,0.5
	l-0.2,0.2c-0.7,0.7-0.7,1.9,0,2.6L85.2,88c0.7,0.7,1.9,0.7,2.6,0l0.2-0.2C88.3,87.4,88.5,87,88.5,86.5z"/>
</svg>
